inDegrees=yes
name=lift_forw_l_res.mot
DataType=double
version=3
OpenSimVersion=4.4-2022-07-23-0e9fedc
endheader
time	pelvis_tilt	pelvis_list	pelvis_rotation	pelvis_tx	pelvis_ty	pelvis_tz	hip_flexion_r	hip_adduction_r	hip_rotation_r	knee_angle_r	knee_angle_r_beta	ankle_angle_r	subtalar_angle_r	mtp_angle_r	hip_flexion_l	hip_adduction_l	hip_rotation_l	knee_angle_l	knee_angle_l_beta	ankle_angle_l	subtalar_angle_l	mtp_angle_l	lumbar_extension	lumbar_bending	lumbar_rotation	arm_flex_r	arm_add_r	arm_rot_r	elbow_flex_r	pro_sup_r	wrist_flex_r	wrist_dev_r	arm_flex_l	arm_add_l	arm_rot_l	elbow_flex_l	pro_sup_l	wrist_flex_l	wrist_dev_l
25	-0.3758576322558915	0.555984782399269	89.73608489050764	0	0.9399999999999999	0	44.11069116599257	-10.02204941557406	0	59.83776868596624	1.044366080616872	-5.00366354787477	0	0	44.11069116599257	-10.02204941557406	0	59.83776868596624	1.044366080616872	-5.00366354787477	0	0	-0.853567517828985	-1.204000013620564	0.939235321870611	0	-12.60260807761506	0	75.77509185638569	45.08107497802069	0	0	24.10389521741632	-12.02009081317249	18.47336939817422	36.32038835807812	45.08107497802069	0	0
26	-0.3882620235208661	0.5326000093035425	89.73875024738904	0	0.9399999999999999	0	44.1130858429196	-10.02189666551718	0	59.83819114797461	1.044373453969882	-5.003632537088557	0	0	44.1130858429196	-10.02189666551718	0	59.83819114797461	1.044373453969882	-5.003632537088557	0	0	-0.8133588547231068	-1.202616270161988	0.9223696704828999	0	-12.60644618576189	0	75.77300525410952	45.08060405874278	0	0	29.17983602739742	-12.34768569735219	20.30300376823573	33.40389908348818	45.08060405874278	0	0
27	-0.3736168361692516	0.5578331835169119	89.71959165436157	0	0.9399999999999999	0	44.11564921373207	-10.02173676896567	0	59.83864613802025	1.044381395044243	-5.00360030533643	0	0	44.11564921373207	-10.02173676896567	0	59.83864613802025	1.044381395044243	-5.00360030533643	0	0	-0.8528333168408698	-1.184309538899823	0.9508549487409764	0	-12.61058277094711	0	75.77077165846117	45.08010840629652	0	0	32.12528915093954	-11.73366549467971	20.40791375961151	33.58929526129161	45.08010840629652	0	0
28	-0.3795233719888212	0.5527480556358858	89.72673307111532	0	0.9399999999999999	0	44.11578535665381	-10.02170629018486	0	59.8386446350267	1.044381368812056	-5.003592882033617	0	0	44.11578535665381	-10.02170629018486	0	59.8386446350267	1.044381368812056	-5.003592882033617	0	0	-0.8509578478483567	-1.195383221521767	0.9547968421452995	0	-12.61060764528365	0	75.770653043043	45.08002963826652	0	0	36.05059787890155	-11.51668641450608	21.48457706671769	30.15411706393174	45.08002963826652	0	0
29	-0.3740573545891048	0.5369531577616251	89.74673358632724	0	0.9399999999999999	0	44.1160794488893	-10.02168102696008	0	59.83868673088674	1.044382103523416	-5.003587425507792	0	0	44.1160794488893	-10.02168102696008	0	59.83868673088674	1.044382103523416	-5.003587425507792	0	0	-0.8202998803705061	-1.187259169603167	0.9224234274342025	0	-12.61101424114514	0	75.77039678993806	45.07995597999223	0	0	36.41603920080789	-11.76225411042504	21.2229458861893	29.40273772656697	45.07995597999223	0	0
30	-0.3787016996814335	0.5528369882018557	89.7196600014354	0	0.9399999999999999	0	44.11665849858626	-10.02163124971806	0	59.83876948880665	1.0443835479216	-5.003576676120463	0	0	44.11665849858626	-10.02163124971806	0	59.83876948880665	1.0443835479216	-5.003576676120463	0	0	-0.8472902360854224	-1.197319219704383	0.9563088284541739	0	-12.61181407194596	0	75.76989224321866	45.07981084370902	0	0	36.65747756150417	-11.84274326007093	21.61904531944703	27.48863729542843	45.07981084370902	0	0
31	-0.3804150857909578	0.5455660739147425	89.72537698144188	0	0.9399999999999999	0	44.11726838323813	-10.02156526636837	0	59.83885459564026	1.044385033316063	-5.003561484574985	0	0	44.11726838323813	-10.02156526636837	0	59.83885459564026	1.044385033316063	-5.003561484574985	0	0	-0.8513001031184501	-1.195809505511979	0.9536204369712845	0	-12.61260168029102	0	75.76936083531858	45.07962838230814	0	0	36.6321514186985	-11.84254868294543	21.6145781837255	27.54899632787079	45.07962838230814	0	0
32	-0.3706079886032877	0.5516993208862842	89.72351555387219	0	0.9399999999999999	0	44.11760320677903	-10.02153661513121	0	59.8389025010677	1.044385869423501	-5.003555309135661	0	0	44.11760320677903	-10.02153661513121	0	59.8389025010677	1.044385869423501	-5.003555309135661	0	0	-0.8571156172877176	-1.184924395208178	0.9575023072869793	0	-12.61306471596548	0	75.76906909153108	45.07954473520988	0	0	36.41308532934564	-11.50403396909532	21.17530645872547	27.76391225694099	45.07954473520988	0	0
33	-0.9279293462205871	0.1604982629558163	88.8283781219322	0	0.9399999999999999	0	44.11791022448747	-10.02151058810955	0	59.8389467222092	1.044386641228019	-5.003549710948977	0	0	44.11791022448747	-10.02151058810955	0	59.8389467222092	1.044386641228019	-5.003549710948977	0	0	-0.4217001109987532	-1.750616070628975	1.844933262631189	0	-12.61349138315568	0	75.7688015758216	45.07946861344903	0	0	36.58937756438906	-11.65213420892968	20.5240857445231	26.92801651077424	45.07946861344903	0	0
34	-0.3731862857018288	0.5529914941736536	89.73501407373008	0	0.9399999999999999	0	44.12248914258297	-10.02124216509602	0	59.83977884680074	1.044401164541928	-5.003496638677564	0	0	44.12248914258297	-10.02124216509602	0	59.83977884680074	1.044401164541928	-5.003496638677564	0	0	-0.8613509460899055	-1.192655936613924	0.9495582985994124	0	-12.62103016765689	0	75.76481172111919	45.07862404557492	0	0	35.25561754906745	-11.92894889178173	20.38332477484228	26.76686466792179	45.07862404557492	0	0
35	-0.9272176498083182	0.1809265268241572	88.83114690830023	0	0.9399999999999999	0	44.12760808509085	-10.02093938866289	0	59.84070118827488	1.04441726243748	-5.003436664451224	0	0	44.12760808509085	-10.02093938866289	0	59.84070118827488	1.04441726243748	-5.003436664451224	0	0	-0.4480645718038729	-1.749909892004435	1.848596436430873	0	-12.62942399665299	0	75.7603513165916	45.07767300822359	0	0	32.63093189279758	-11.02432168092506	19.39295843036714	27.59916067705349	45.07767300822359	0	0
36	-0.933317025953547	0.1658504622161369	88.8305436546617	0	0.9399999999999999	0	44.12977025040542	-10.02080947820521	0	59.84108810642993	1.044424015433221	-5.00341080241216	0	0	44.12977025040542	-10.02080947820521	0	59.84108810642993	1.044424015433221	-5.00341080241216	0	0	-0.4292534986092038	-1.752889797284507	1.839661387939226	0	-12.63295271110997	0	75.75846730902538	45.07726652365184	0	0	31.35858698082424	-10.75017069426537	18.41870091614496	26.08236305245122	45.07726652365184	0	0
37	-0.937550465702835	0.1843985653147394	88.82901930411202	0	0.9399999999999999	0	44.13665770936895	-10.02041079770343	0	59.84233759487675	1.044445823120584	-5.003332330358087	0	0	44.13665770936895	-10.02041079770343	0	59.84233759487675	1.044445823120584	-5.003332330358087	0	0	-0.4514243541979394	-1.752408251080137	1.852774078812865	0	-12.64433050272259	0	75.75246589748423	45.07600797170879	0	0	26.62003843003696	-10.10911786789701	17.68989639874537	27.69043374790008	45.07600797170879	0	0
38	-0.9248053817461509	0.1822191661213232	88.83224615871391	0	0.9399999999999999	0	44.1426479554635	-10.02006550014126	0	59.84342134391808	1.04446473810962	-5.003264484050594	0	0	44.1426479554635	-10.02006550014126	0	59.84342134391808	1.04446473810962	-5.003264484050594	0	0	-0.4512772708961285	-1.745739920786959	1.846473940942834	0	-12.65423393492067	0	75.74724627502272	45.07491661996975	0	0	21.99225227788959	-9.741637352202181	15.63643601000879	28.53536924039812	45.07491661996975	0	0
39	-0.9128116261010615	0.1941728531242779	88.83103417246363	0	0.9399999999999999	0	44.14803265721951	-10.01975924676672	0	59.84439770979274	1.044481778908837	-5.003204566567785	0	0	44.14803265721951	-10.01975924676672	0	59.84439770979274	1.044481778908837	-5.003204566567785	0	0	-0.4730096370211349	-1.725027485859481	1.849700389053117	0	-12.66317309570729	0	75.74255429352706	45.07394549532072	0	0	16.70767141575506	-8.220487743489748	13.02980865044811	29.37642330248628	45.07394549532072	0	0
40	-0.9239333898987859	0.1815825012108212	88.83392282987158	0	0.9399999999999999	0	44.15213876266139	-10.01952298192726	0	59.84513653155332	1.044494673781145	-5.003158195581993	0	0	44.15213876266139	-10.01952298192726	0	59.84513653155332	1.044494673781145	-5.003158195581993	0	0	-0.4485346158473811	-1.744346335713427	1.844770820437673	0	-12.66996133511357	0	75.73897642376545	45.07319825085199	0	0	13.56128604121342	-7.299648637378755	11.36443382160605	27.89031126930871	45.07319825085199	0	0
41	-0.9199023476353526	0.1844600874309178	88.83307577387134	0	0.9399999999999999	0	44.15660062928328	-10.01927028698007	0	59.8459418212296	1.044508728737428	-5.003108859561734	0	0	44.15660062928328	-10.01927028698007	0	59.8459418212296	1.044508728737428	-5.003108859561734	0	0	-0.4547323133490058	-1.736809422009416	1.844425595124103	0	-12.67737182368216	0	75.73508855812501	45.0723958634595	0	0	9.3037731490402	-4.803971796220252	9.319392172475366	27.16948216456971	45.0723958634595	0	0
42	-0.9308847725071993	0.1789262122502406	88.83183380927147	0	0.9399999999999999	0	44.16008843267122	-10.01907110528241	0	59.84656821175042	1.04451966131442	-5.003069878783019	0	0	44.16008843267122	-10.01907110528241	0	59.84656821175042	1.04451966131442	-5.003069878783019	0	0	-0.4471193972582419	-1.755090375596097	1.847150037509413	0	-12.68314852977897	0	75.73204944737981	45.07176461629923	0	0	6.005327713300957	-2.824873299903545	8.280892941412196	24.26496092485703	45.07176461629923	0	0
43	-0.9297792006188585	0.1827797398689578	88.82818968736355	0	0.9399999999999999	0	44.16247202880087	-10.01893582276357	0	59.84699400701706	1.044527092843762	-5.003043496935673	0	0	44.16247202880087	-10.01893582276357	0	59.84699400701706	1.044527092843762	-5.003043496935673	0	0	-1.146291712065171	-2.057626172608247	1.528725647681087	0	-12.68709527125213	0	75.7299724918451	45.07133489646241	0	0	3.147517145185253	-1.718931300717374	6.13833109102154	23.06704828620579	45.07133489646241	0	0
44	-0.9292095891334543	0.1542962553670382	88.83641122877931	0	0.9399999999999999	0	44.16427879362273	-10.01883083581688	0	59.84731372882313	1.044532673041968	-5.003022878668935	0	0	44.16427879362273	-10.01883083581688	0	59.84731372882313	1.044532673041968	-5.003022878668935	0	0	-1.088496465041193	-2.073626365131187	1.52715755453429	0	-12.69006397746639	0	75.72839816178954	45.0710032554921	0	0	1.729337681993341	-0.9194600590729254	4.4524510765541	18.60619860576644	45.0710032554921	0	0
